# xmcd
#
# Track frame offsets:
#	150
#	18265
#	28070
#	42494
#	59010
#	74915
#	89820
#	104948
#	117821
#	131668
#	142804
#	155853
#	167641
#	183360
#	197486
#	210707
#	224092
#	240544
#	253062
#	260873
#
# Disc length: 3654 seconds
#
# Revision: 2
# Processed by: cddbd v1.5.2PL0 Copyright (c) Steve Scherf et al.
# Submitted via: EasyCDDAExtractor 16.0.8.1
#
DISCID=480e4414
DTITLE=Agents - ...Is Hits! 1981-2007! cd3
DYEAR=2016
DGENRE=MelancholyFinnishRock
TTITLE0=Agents and Jorma K‰‰ri‰inen - Id‰n ja l‰nnen tiet (tv-studio-live)
TTITLE1=Agents and Jorma K‰‰ri‰inen - M‰ j‰in kii (tv-studio-live)
TTITLE2=Agents and Jorma K‰‰ri‰inen - Uhkapeluri
TTITLE3=Agents and Jorma K‰‰ri‰inen - Oi kuu (tv-studio-live)
TTITLE4=Agents and Jorma K‰‰ri‰inen - Kukat kauniit
TTITLE5=Agents and Jorma K‰‰ri‰inen - Unohtumaton ilta
TTITLE6=Agents and Jorma K‰‰ri‰inen - Emigrantin laulu
TTITLE7=Agents and Jorma K‰‰ri‰inen - Kuolleet lehdet
TTITLE8=Agents and Eero ja Jussi Raittinen - Kaunis nainen (tv-studio-live)
TTITLE9=Agents and Ville Valo - Jykev‰‰ on rakkaus (tv-studio-live)
TTITLE10=Agents and Ville Valo - Paratiisi (tv-studio-live)
TTITLE11=Agents and Pate Mustaj‰rvi - Bensaa suonissa (tv-studio-live)
TTITLE12=Agents and Pate Mustaj‰rvi - Fiilaten ja hˆyl‰ten (tv-studio-live)
TTITLE13=Agents and Reijo Taipale - Satumaa (tv-studio-live)
TTITLE14=Agents and Reijo Taipale - Laulava syd‰n (tv-studio-live)
TTITLE15=Agents and Paula Koivuniemi - Perhonen (tv-studio-live)
TTITLE16=Agents and Tuomari Nurmio - Aavaa preeeriaa (tv-studio-live)
TTITLE17=Agents and Tuomari Nurmio - Ramona (tv-studio-live)
TTITLE18=Agents and Otto Grundstrˆm - Valo yˆss‰ twist (tv-studio-live)
TTITLE19=Agents and Otto Grundstrˆm - Kurjuuden kuningas (tv-studio-live)
EXTD=
EXTT0=
EXTT1=
EXTT2=
EXTT3=
EXTT4=
EXTT5=
EXTT6=
EXTT7=
EXTT8=
EXTT9=
EXTT10=
EXTT11=
EXTT12=
EXTT13=
EXTT14=
EXTT15=
EXTT16=
EXTT17=
EXTT18=
EXTT19=
PLAYORDER=
